<svg xmlns="http://www.w3.org/2000/svg" width="43" height="41">
    <path fill="#8D81AC" fill-rule="evenodd" d="M43.003 20.98c.008.375-.127.72-.38.974l-3.763 3.788.039 8.759c-.022.065-.043.148-.053.247.002-.021.005-.039 0-.027-.015.048-.028.094-.039.141-.015.042-.028.084-.038.123-.012.047-.021.094-.037.14l-.028.053c-.026.057-.053.112-.084.166l-.034.048c-.04.059-.085.114-.125.157l-.061.053c-.055.05-.109.1-.153.131-.027.017-.057.03-.085.044l-.182.1c-.16.064-.325.096-.491.096l-3.146.019c-.359 0-.695-.137-.944-.383s-.386-.574-.386-.926c0-.721.587-1.285 1.336-1.285h1.807l.002-8.091c-.006-.118.002-.263.019-.362l.018-.065c.016-.065.03-.13.064-.211.073-.182.193-.349.355-.494l3.223-3.228-2.9-2.901-.156-.125c-.319-.204-.537-.537-.604-.952-.019-.094-.026-.206-.019-.333l.001-7.981h-1.808c-.737 0-1.336-.595-1.336-1.327-.001-.354.137-.687.389-.937.251-.251.587-.389.942-.389l3.128.002.073-.001c.16.006.315.04.439.093.036.021.073.042.102.057l.056.028c.032.016.065.03.097.051.058.038.108.086.158.133.021.02.043.038.066.057.042.044.082.095.118.146l.041.06c.027.044.052.095.077.147.012.029.027.058.042.086.017.048.03.098.044.149.012.046.028.091.047.138.006.028.011.056.013.081.009.096.03.178.052.244l-.039 8.688 3.751 3.788c.264.265.403.615.392 1.031zM28.371 9.277c.008.088.009.155.004.213-.005.061-.018.132-.044.224l-.021.077-2.251 25.988c-.013.256-.096.494-.257.716l-.029.036c-.059.073-.111.128-.159.17l-4.658 3.995c-.231.199-.513.304-.815.304-.377 0-.731-.168-.976-.466-.018-.023-.031-.048-.047-.073l-3.855-4.673c-.233-.281-.33-.645-.275-1.024l2.933-33.521c.009-.04.017-.081.023-.118l.012-.079.006-.042c.012-.028.023-.056.031-.082.016-.045.031-.092.054-.147l.032-.054c.027-.048.061-.106.097-.157l.031-.037c.053-.062.099-.111.13-.141l.061-.046c.054-.043.109-.088.163-.117l.154-.074c.027-.013.053-.028.077-.037.046-.016.095-.027.147-.037.059-.012.118-.03.18-.054l.063-.009L19.25 0l8.566.818.098.004c.226 0 .459.152.613.278.329.273.504.692.467 1.117l-.63 6.981.007.079zM17.629 33.778l6.012.531 2.051-23.763-6.011-.532-2.052 23.764zm2.706-31.022l-.423 4.68 6.011.53.422-4.679-6.01-.531zM6.741 24.669c.034.081.048.146.064.211l.018.065c.017.099.025.244.019.362l.002 8.091h1.807c.749 0 1.336.564 1.336 1.285 0 .352-.137.68-.385.926-.25.246-.586.383-.945.383l-3.146-.019c-.166 0-.331-.032-.491-.096l-.182-.1c-.028-.014-.058-.027-.085-.044-.044-.031-.098-.081-.153-.131l-.061-.053c-.04-.043-.084-.098-.125-.157l-.034-.048c-.031-.054-.058-.109-.084-.166l-.028-.053c-.016-.046-.025-.093-.037-.14-.01-.039-.023-.081-.038-.123-.011-.047-.024-.093-.039-.141-.005-.012-.002.006 0 .027-.01-.099-.031-.182-.053-.247l.039-8.759-3.763-3.788c-.253-.254-.388-.599-.38-.974-.011-.416.128-.766.392-1.031l3.751-3.788-.039-8.688c.022-.066.043-.148.052-.244.002-.025.007-.053.013-.081.019-.047.035-.092.047-.138.014-.051.027-.101.044-.149.015-.028.03-.057.042-.086.025-.052.05-.103.077-.147l.041-.06c.036-.051.076-.102.118-.146.023-.019.045-.037.066-.057.05-.047.1-.095.158-.133.032-.021.065-.035.097-.051l.056-.028.103-.057c.123-.053.278-.087.438-.093l.073.001 3.128-.002c.355 0 .691.138.942.389.252.25.39.583.389.937 0 .732-.599 1.327-1.336 1.327H6.841l.001 7.981c.007.127 0 .239-.019.333-.067.415-.285.748-.604.952l-.156.125-2.9 2.901 3.223 3.228c.162.145.282.312.355.494z"/>
</svg>
