<svg height="390pt" viewBox="0 0 390 390.78208" width="390pt" xmlns="http://www.w3.org/2000/svg"><path d="m271.769531 42.957031c-.074219-2.125-.992187-4.132812-2.546875-5.578125-1.558594-1.449218-3.628906-2.214844-5.753906-2.136718l-37.574219 1.40625c-4.414062.167968-7.855469 3.875-7.695312 8.289062l4.238281 116.121094c.15625 4.1875 3.515625 7.546875 7.703125 7.699218l116.109375 4.230469h.300781c4.300781-.003906 7.828125-3.402343 7.988281-7.699219l1.417969-37.570312c.082031-2.121094-.6875-4.191406-2.132812-5.75-1.445313-1.554688-3.453125-2.472656-5.578125-2.546875l-37.015625-1.316406 77.578125-77.578125c3.125-3.125 3.125-8.1875 0-11.3125l-26.867188-26.871094c-3.125-3.125-8.191406-3.125-11.316406 0l-77.570312 77.570312zm0 0"/><path d="m2.734375 361.566406 26.871094 26.871094c3.125 3.125 8.191406 3.125 11.3125 0l77.566406-77.5625 1.273437 36.933594c.074219 2.125.992188 4.136718 2.550782 5.582031 1.554687 1.449219 3.625 2.21875 5.75 2.136719l37.566406-1.421875c4.410156-.164063 7.851562-3.871094 7.691406-8.285157l-4.253906-116.125c-.152344-4.1875-3.511719-7.546874-7.699219-7.699218l-116.113281-4.234375c-.101562 0-.199219 0-.300781 0-4.300781.003906-7.828125 3.402343-7.988281 7.699219l-1.394532 37.589843c-.078125 2.125.6875 4.191407 2.132813 5.746094 1.445312 1.554687 3.449219 2.472656 5.574219 2.546875l37.046874 1.328125-77.585937 77.582031c-3.125 3.125-3.125 8.191406 0 11.3125zm0 0"/></svg>